<?xml version="1.0" encoding="UTF-8" standalone="no"?><!DOCTYPE svg PUBLIC "-//W3C//DTD SVG 1.1//EN" "http://www.w3.org/Graphics/SVG/1.1/DTD/svg11.dtd"><svg width="100%" height="100%" viewBox="0 0 100 100" version="1.1" xmlns="http://www.w3.org/2000/svg" xmlnsXlink="http://www.w3.org/1999/xlink" xmlSpace="preserve" style="fill-rule:evenodd;clip-rule:evenodd;stroke-linejoin:round;stroke-miterlimit:2;"><g><path d="M68.827,70.345c-1.675,1.675 -4.395,1.675 -6.07,0l-33.102,-33.102c-1.675,-1.675 -1.675,-4.395 -0,-6.07l1.518,-1.518c1.675,-1.675 4.395,-1.675 6.07,-0l33.102,33.102c1.675,1.675 1.675,4.395 0,6.07l-1.518,1.518Z"/><path d="M31.173,70.345c1.675,1.675 4.395,1.675 6.07,0l33.102,-33.102c1.675,-1.675 1.675,-4.395 0,-6.07l-1.518,-1.518c-1.675,-1.675 -4.395,-1.675 -6.07,-0l-33.102,33.102c-1.675,1.675 -1.675,4.395 -0,6.07l1.518,1.518Z"/></g></svg>