<?xml version="1.0" encoding="UTF-8" standalone="no"?>
<!DOCTYPE svg PUBLIC "-//W3C//DTD SVG 1.1//EN" "http://www.w3.org/Graphics/SVG/1.1/DTD/svg11.dtd">
<svg width="100%" height="100%" viewBox="0 0 100 100" version="1.1" xmlns="http://www.w3.org/2000/svg" xmlnsXlink="http://www.w3.org/1999/xlink" xmlSpace="preserve" style="fill-rule:evenodd;clip-rule:evenodd;stroke-linejoin:round;stroke-miterlimit:2;">
    <g transform="matrix(0.653259,0.653259,-0.653259,0.653259,48.559,3.44041)">
        <g transform="matrix(0.836636,1.74324e-16,2.40453e-16,-1.03098,-7.42638,70.6323)">
            <path d="M71.873,46.94C71.873,45.63 70.562,44.567 68.948,44.567L13.095,44.567C11.481,44.567 10.17,45.63 10.17,46.94L10.17,48.127C10.17,49.437 11.481,50.5 13.095,50.5L68.948,50.5C70.562,50.5 71.873,49.437 71.873,48.127L71.873,46.94Z"/>
        </g>
        <g transform="matrix(3.97823e-17,-0.836636,-1.03098,-7.4659e-17,98.6524,78.6992)">
            <path d="M71.873,46.94C71.873,45.63 70.562,44.567 68.948,44.567L13.095,44.567C11.481,44.567 10.17,45.63 10.17,46.94L10.17,48.127C10.17,49.437 11.481,50.5 13.095,50.5L68.948,50.5C70.562,50.5 71.873,49.437 71.873,48.127L71.873,46.94Z"/>
        </g>
    </g>
</svg>
