<?xml version="1.0" encoding="UTF-8" standalone="no"?>
<!DOCTYPE svg PUBLIC "-//W3C//DTD SVG 1.1//EN" "http://www.w3.org/Graphics/SVG/1.1/DTD/svg11.dtd">
<svg width="100%" height="100%" viewBox="0 0 100 100" version="1.1" xmlns="http://www.w3.org/2000/svg" xmlnsXlink="http://www.w3.org/1999/xlink" xmlSpace="preserve" style="fill-rule:evenodd;clip-rule:evenodd;stroke-linejoin:round;stroke-miterlimit:2;">
    <g transform="matrix(5.77128e-17,0.942521,-1.03098,6.31293e-17,99.006,11.8363)">
        <path d="M71.873,46.94C71.873,45.63 70.71,44.567 69.277,44.567L12.766,44.567C11.334,44.567 10.17,45.63 10.17,46.94L10.17,48.127C10.17,49.437 11.334,50.5 12.766,50.5L69.277,50.5C70.71,50.5 71.873,49.437 71.873,48.127L71.873,46.94Z" style="fill:rgb(51,51,51);"/>
    </g>
    <g transform="matrix(-0.942521,1.15426e-16,-1.26259e-16,-1.03098,88.6637,99.506)">
        <path d="M71.873,46.94C71.873,45.63 70.71,44.567 69.277,44.567L12.766,44.567C11.334,44.567 10.17,45.63 10.17,46.94L10.17,48.127C10.17,49.437 11.334,50.5 12.766,50.5L69.277,50.5C70.71,50.5 71.873,49.437 71.873,48.127L71.873,46.94Z" style="fill:rgb(51,51,51);"/>
    </g>
</svg>
