<?xml version="1.0" encoding="UTF-8" standalone="no"?>
<!DOCTYPE svg PUBLIC "-//W3C//DTD SVG 1.1//EN" "http://www.w3.org/Graphics/SVG/1.1/DTD/svg11.dtd">
<svg width="100%" height="100%" viewBox="0 0 100 100" version="1.1" xmlns="http://www.w3.org/2000/svg" xmlnsXlink="http://www.w3.org/1999/xlink" xmlSpace="preserve" xmlnsSerif="http://www.serif.com/" style="fill-rule:evenodd;clip-rule:evenodd;stroke-linejoin:round;stroke-miterlimit:2;">
    <g transform="matrix(0.794085,0,0,1,5.65621,-4.14702)">
        <path d="M21.709,44.469L74.812,44.469L74.812,40.302L21.709,40.302L21.709,44.469Z" style="fill:rgb(70,70,70);"/>
    </g>
    <g transform="matrix(0.794085,0,0,1,5.65621,6.61458)">
        <path d="M21.709,44.469L74.812,44.469L74.812,40.302L21.709,40.302L21.709,44.469Z" style="fill:rgb(70,70,70);"/>
    </g>
    <g transform="matrix(1.01205,0,0,1,0.352581,17.3762)">
        <path d="M22.274,44.469L74.247,44.469L74.247,40.302L22.274,40.302L22.274,44.469Z" style="fill:rgb(70,70,70);"/>
    </g>
    <path d="M61.271,21.422L80.527,21.422C82.56,21.422 84.399,22.254 85.724,23.596C86.045,23.922 88.374,26.243 88.716,26.589C90.023,27.908 90.83,29.723 90.83,31.725C90.83,31.725 90.83,72.275 90.83,72.275C90.83,76.306 87.557,79.578 83.527,79.578L20.473,79.578C18.471,79.578 16.657,78.771 15.337,77.464C14.992,77.122 12.666,74.79 12.339,74.466C11,73.143 10.17,71.305 10.17,69.275C10.17,69.275 10.17,28.725 10.17,28.725C10.17,24.694 13.443,21.422 17.473,21.422L61.271,21.422L61.271,25.589L17.473,25.589C15.742,25.589 14.337,26.994 14.337,28.725L14.337,69.275C14.337,71.006 15.742,72.411 17.473,72.411C17.473,72.411 80.527,72.411 80.527,72.411C82.258,72.411 83.663,71.006 83.663,69.275L83.663,28.725C83.663,26.994 82.258,25.589 80.527,25.589L61.271,25.589L61.271,21.422Z" style="fill:rgb(70,70,70);"/>
</svg>
