<?xml version="1.0" encoding="UTF-8" standalone="no"?>
<!DOCTYPE svg PUBLIC "-//W3C//DTD SVG 1.1//EN" "http://www.w3.org/Graphics/SVG/1.1/DTD/svg11.dtd">
<svg width="100%" height="100%" viewBox="0 0 100 100" version="1.1" xmlns="http://www.w3.org/2000/svg" xmlnsXlink="http://www.w3.org/1999/xlink" xmlSpace="preserve" xmlnsSerif="http://www.serif.com/" style="fill-rule:evenodd;clip-rule:evenodd;stroke-linejoin:round;stroke-miterlimit:2;">
    <g transform="matrix(0.707107,0.707107,-0.707107,0.707107,52.9352,-29.5602)">
        <g transform="matrix(0.223153,0.998957,-1.00618,0.224766,99.1018,0.423753)">
            <path d="M71.873,46.94C71.873,45.63 70.802,44.567 69.482,44.567L12.561,44.567C11.242,44.567 10.17,45.63 10.17,46.94L10.17,48.127C10.17,49.437 11.242,50.5 12.561,50.5L69.482,50.5C70.802,50.5 71.873,49.437 71.873,48.127L71.873,46.94Z"/>
        </g>
        <g transform="matrix(0.541317,0.0653815,0.123625,-1.02354,24.8078,124.313)">
            <path d="M71.873,46.94C71.873,45.63 69.862,44.567 67.385,44.567L14.658,44.567C12.181,44.567 10.17,45.63 10.17,46.94L10.17,48.127C10.17,49.437 12.181,50.5 14.658,50.5L67.385,50.5C69.862,50.5 71.873,49.437 71.873,48.127L71.873,46.94Z"/>
        </g>
    </g>
</svg>
