<?xml version="1.0" encoding="UTF-8" standalone="no"?>
<!DOCTYPE svg PUBLIC "-//W3C//DTD SVG 1.1//EN" "http://www.w3.org/Graphics/SVG/1.1/DTD/svg11.dtd">
<svg width="100%" height="100%" viewBox="0 0 100 100" version="1.1" xmlns="http://www.w3.org/2000/svg" xmlnsXlink="http://www.w3.org/1999/xlink" xmlSpace="preserve" style="fill-rule:evenodd;clip-rule:evenodd;stroke-linejoin:round;stroke-miterlimit:2;">
    <g transform="matrix(5.73674e-17,0.961339,1.91195,5.77822e-17,-12.3903,10.5643)">
        <path d="M71.873,45.847C71.873,45.14 70.732,44.567 69.328,44.567L12.716,44.567C11.311,44.567 10.17,45.14 10.17,45.847L10.17,49.22C10.17,49.927 11.311,50.5 12.716,50.5L69.328,50.5C70.732,50.5 71.873,49.927 71.873,49.22L71.873,45.847Z"/>
    </g>
    <g transform="matrix(1,0,0,1,14.2957,2.10489)">
        <path d="M5.495,18.587C4.678,18.118 3.673,18.12 2.858,18.592C2.043,19.063 1.541,19.934 1.541,20.876C1.541,32.522 1.541,63.268 1.541,74.915C1.541,75.856 2.043,76.727 2.858,77.199C3.673,77.67 4.678,77.672 5.495,77.203C15.616,71.389 42.38,56.016 52.535,50.183C53.354,49.713 53.859,48.84 53.859,47.895C53.859,46.95 53.354,46.077 52.535,45.607C42.38,39.774 15.616,24.401 5.495,18.587Z"/>
    </g>
</svg>
